/* XPM */
static char *_e298c606cbe4abaabf9ca5bff821622k9V2sdM88ILoTfKP[] = {
/* columns rows colors chars-per-pixel */
"24 24 4 1 ",
"  c #63B539",
". c #84CE4A",
"X c #A5E75A",
"o c #BDEF63",
/* pixels */
"....X..o. ...o...o..  ..",
".. ....X. ...X...o.....X",
"o..  .....X......X. ....",
"X.o. .o. .X... ..... ...",
"..o...X. X..o.  ..X. . .",
"..X.. ... ..o.. .X..... ",
"...  ...X...X....X...o..",
". ...X..X. ...X....o.X..",
". ....X... .. X. ..o ..X",
"...o..X.. .o. .  ..X. .X",
".. X.......X .. .X......",
".. X.... . .X...... .. .",
". ...X . .X .. .o.. .. .",
"...... ...X ..  o. .o..X",
"X..X. ..o....X. X...o...",
". X.... X. . X.... .X...",
" .X..o. .. o .X.. ....o.",
" ....Xo. ..o. ..  .X..X.",
".X. ..X....X. ..o.....X.",
"XX.. .... ......o. . ...",
"X....X.. .oX. ..X .. X. ",
".. ... . oX .. .. . .X. ",
". ..o. ..... .  ......X ",
". ..o ..o... o. ..... .."
};
