/* XPM */
static char *c107a6c01f444dd2a9ee6e4a14fb6bf1T2ze5XoG1xn8wbvz[] = {
/* columns rows colors chars-per-pixel */
"24 24 14 1 ",
"  c #7B7B21",
". c #9C4208",
"X c #AD5218",
"o c #BD6B31",
"O c #4A9C21",
"+ c #63B539",
"@ c #CE8452",
"# c #D6A56B",
"$ c #DEA56B",
"% c #84CE4A",
"& c #A5E75A",
"* c #E7BD84",
"= c #EFD69C",
"- c #F7EFAD",
/* pixels */
"%%%%&%%&%+%%%&%%%%%%++%%",
"%%+%%%%===+%%&%%%&%%%%%&",
"&%%++==---**+%%%+&%+%+%%",
"&%&%=--===--*++%+%%%+%%%",
"%%&=--=---*--*++%%&%+%+%",
"%%&=-=-==*=*-*O++%%%%%%+",
"%%%=-=-***=*=*OO###+%&%%",
"%+%*=-*===*==#O#***@+&%%",
"%++$*==***==#@#*##@*@%%&",
"%%+@$*#===#@oo@*#@@#@+%&",
"%-=o@$$##@****o@*##@oO%%",
"%=*@o@$$@*====#o@@@oX*=%",
"%o@$@o@$*=***#*#oooX@#*%",
"%+o@$@o$*=*###*#XXo@oX+&",
"&%o@$@o@o#=***#oX.XoX O%",
"%++o@oo@X@####@o...X.. O",
"%+ XooXoXo@@@@oo.....XO+",
"+%X.XXXXXooooooX. .X .+%",
"%+ X.XX.XXooXoXX.O .O +%",
"& X. X...XXoXX.X OO O+%%",
"%+O X.X...XX.X..XO+O+%+%",
"%%+OX X.X..X..X  +%+%&%+",
"%+%+ O+ . X. O OO+%%%%&+",
"%+%%&+%+ O. +&%++%%%%+%%"
};
