/* XPM */
static char *d733685d5f01439dad77fbc678008c4cyAF2HJUozqzEpRR0[] = {
/* columns rows colors chars-per-pixel */
"16 19 8 1 ",
"  c black",
". c #5060B0",
"X c #803880",
"o c #A868B0",
"O c none",
"+ c #8098F8",
"@ c #D090D8",
"# c #B0C8F8",
/* pixels */
"OOOOOO     OOOOO",
"OOOO  +++++  OOO",
"OOO .+++####+ OO",
"OO .+++######+ O",
"OO ++++####### O",
"O .++++#######+ ",
"O .++++#### ##+ ",
"O .+++++##+###+ ",
"O .++@..+##+... ",
"OO .. X@o+###+ O",
"OOO .@o .+++. OO",
"OO   X @+..  OOO",
"O ..    #+ OOOOO",
" +#+. .###+ OOOO",
" +##+.+##oX OOOO",
" .+#+ .+##+ OOOO",
"O .+.   .  OOOOO",
"OO   O .+# OOOOO",
"OOOOOOO   OOOOOO"
};
