/* XPM */
static char *_2bc4c81c25f4a6fe6a255ec0d5748b6vPJZw4R7DLUk0VX7[] = {
/* columns rows colors chars-per-pixel */
"21 19 8 1 ",
"  c black",
". c #5060B0",
"X c #803880",
"o c #A868B0",
"O c none",
"+ c #8098F8",
"@ c #D090D8",
"# c #B0C8F8",
/* pixels */
"OOOOOOOO     OOOOOOOO",
"OOOOOO  +++++  OOOOOO",
"OOOOO .#####++. OOOOO",
"OOOO .#######++. OOOO",
"OOXO +########++ OXOO",
"OO@ +#########++. @OO",
"@XoX+#########++.XoX@",
"  @ .+#######+++. @  ",
"O X  ++####+++++  X O",
"OO O .+++++++++. O OO",
"OOOOO  .+++++.  OOOOO",
"OOO   O  ++   OOOOOOO",
"OO .+.  .#+. OOOOOOOO",
"OO +##+ +##+. OOOOOOO",
"OO +###+  .+. OOOOOOO",
"OO .+####++. OOOOOOOO",
"OOO .++.    . OOOOOOO",
"OOOO    . O .+ OOOOOO",
"OOOOOOO  OOO  OOOOOOO"
};
